<svg id="圖層_1" data-name="圖層 1" xmlns="http://www.w3.org/2000/svg" viewBox="0 0 1244.32 690.83"><path d="M814.56,466.56c-.35-19.88-1.06-26.1-6.85-25.43-22.51,2.61-74.13,3.19-96.53,4.2-3.35.15-3,1.54-3.15,9.51-.58,37.94-16.27,82.06-50.85,102.08-26.67,15.45-57.5,19.12-87.92,19.56-8.72.15-17.46-.11-26.17-.63-9.17-.55-18.34-1.43-27.46-2.57s-18.46-3.21-26.95-7.14c-17.32-8-29.88-23.77-39.11-39.85C440.24,510,432,493.64,432.46,474.5c.31-13.88,1.83-16.46-3.44-17.18s-24,.66-30.07-.07c-23.49-2.83-42.25-6.74-63.59-3.17-6.06,1-6.1,4.3-6.39,9.47-.53,9.54,3,206,2.08,267.7-.18,12,4.21,22.43,7,33.35,3,11.93,9.36,11.21,31.67,11.67,15,.3,30.6.88,45.6.44,23-.69,53.52,1.47,76.48.15,16.9-1,106.26.15,147.8-3.81,14.29-1.36,125.74-5.7,149-5.94a54,54,0,0,0,13.91-1.54c10.29-2.83,16.24.6,16.81-9.89.79-14.46,2-39.45,1.91-53.91C820.86,627.17,815.89,541.12,814.56,466.56Z" transform="translate(-328.3 -86.47)" fill="#ffe55f"/><path d="M338.51,445.33c2.18-.08,12.41-1.64,14.6-1.68,30.89-.41,53.61,1.42,84.4,3.64,29.37,2.11,55.45-3,78.5-1.63,10.84.64,81.61-10,88.09-10.63,36.83-3.62,76-16.72,112.8-20.75,22.78-2.49,59.27-2.08,83.76-7,1.71-.34,9.25.18,1.34-6-49.33-38.41-115-80.39-165.37-118-20-14.93-37.3-21.19-51-38.24-1.74-2.16-3.94-8.63-4.11-11.79-.43-8.3-1-11.79-1.72-20.06-3.36-37.15-2.15-73-4.8-110.21-.45-6.13-1.25-15.08-8.05-16.35s-7,4.52-9.42,10.61c-1.74,4.29-.31,10.91-.59,15.57-2.42,39.32-1.85,77.35-6.72,116.55-.64,5.17-8.86,7.83-10.12,9C513.72,262,486,280.07,461.68,304c-21.33,21-47.94,40.75-70.05,61-20.22,18.54-42.11,34.79-54.53,59.91-1.75,3.56-10,17.11-8.66,19.62C330,447.63,335,445.45,338.51,445.33Z" transform="translate(-328.3 -86.47)" fill="#ffe55f"/><path d="M676.27,446.52c-21.2.14-34,4.23-55.19,4.23-9.62-1.69-28.22-.95-37.8,1.7-18,5-35.77,2.84-54.49,3.53-20.89.78-61.53.89-82.36,2.61-7.71.64-4.73,12.09-.8,29.2,3.67,15.9,10.48,32.31,23.7,43.18,29.66,24.37,64,29.22,101.48,27.5,23.84-1.11,50.18-3.67,70.53-17.09,17.79-11.73,29.72-31.24,35.54-51.25,3.64-12.47,6.78-25.63,5.12-38.66C681.47,447.31,680.06,446.48,676.27,446.52Z" transform="translate(-328.3 -86.47)" fill="#ffe55f"/><path d="M1326,567.22v-15a2.82,2.82,0,1,0-5.64,0v15a2.82,2.82,0,0,0,5.64,0Z" transform="translate(-328.3 -86.47)" fill="#231815"/><path d="M1409.86,770.11H1391.8a4.45,4.45,0,0,1-4.7-4.7V720.84c0-2.48-1.24-3.71-3.73-3.71s-3.8,1.23-3.8,3.71v51a4.45,4.45,0,0,0,4.69,4.69h25.6c2.11,0,3.16-1.09,3.16-3.24S1412,770.11,1409.86,770.11Z" transform="translate(-328.3 -86.47)" fill="#231815"/><path d="M1318.49,717.13h-12.23a4.45,4.45,0,0,0-4.7,4.69v51q0,3.74,3.81,3.73c2.48,0,3.73-1.24,3.73-3.73V727.91a4.45,4.45,0,0,1,4.7-4.71h3.8q8.12,0,11.75,2.44,4,2.67,4,8.9c0,4.22-1.27,7.32-3.78,9.32s-6.38,3-11.62,3h-2.84q-3,0-3,3.07c0,2,1,3,3,3h3.8q10.14,0,15.81-4.44,6.08-4.79,6.08-13.94Q1340.78,717.13,1318.49,717.13Z" transform="translate(-328.3 -86.47)" fill="#231815"/><path d="M1475.34,720.66a5.36,5.36,0,0,0-1.9-2.6,5.08,5.08,0,0,0-3-1h-.89a5.1,5.1,0,0,0-3,1,5.43,5.43,0,0,0-1.9,2.6l-17.5,51.44c-1,2.91.08,4.39,3.16,4.39a3.68,3.68,0,0,0,3.89-2.93l4.87-15.23h14.6c2,0,3-1,3-3a2.63,2.63,0,0,0-3-3h-12.75l2.92-9.07c1.46-4.66,2.72-8.84,3.84-12.65a2.17,2.17,0,0,1,2.09-1.49h.38a2.12,2.12,0,0,1,2,1.4c1.47,5,2.77,9.29,3.88,12.74l9.4,30.13a4,4,0,0,0,4.14,3.09c3.23,0,4.31-1.53,3.23-4.56Z" transform="translate(-328.3 -86.47)" fill="#231815"/><path d="M1533.49,776.51q3.65,0,3.64-3.56V741.43q0-18.79,14.18-18.79,13.79,0,13.78,18.79v31.35q0,3.74,3.72,3.73t3.81-3.73V741.67q0-13.51-6.15-19.92-5.34-5.68-15.16-5.68-21.37,0-21.38,25.6V773C1529.93,775.32,1531.11,776.51,1533.49,776.51Z" transform="translate(-328.3 -86.47)" fill="#231815"/><path d="M1385.83,608.57c-2.54,0-3.82,1.24-3.82,3.71v51.94c0,2.49,1.28,3.73,3.82,3.73s3.72-1.24,3.72-3.73V612.28Q1389.55,608.57,1385.83,608.57Z" transform="translate(-328.3 -86.47)" fill="#231815"/><path d="M1448.14,600.26h15.06a2.83,2.83,0,1,0,0-5.66h-15.06a2.83,2.83,0,1,0,0,5.66Z" transform="translate(-328.3 -86.47)" fill="#231815"/><path d="M1329.17,635.21l-8.5-3.63a32,32,0,0,1-6.65-3.48,8,8,0,0,1-3.15-6.41,7.7,7.7,0,0,1,3-6.36,12.76,12.76,0,0,1,8.06-2.39,18.61,18.61,0,0,1,11,3.57c1.67,1.34,3.21,1.18,4.62-.5,1.24-1.51,1.18-2.88-.16-4.13a24.24,24.24,0,0,0-15.48-5.5q-8.1,0-13.4,4.45a14.17,14.17,0,0,0-5.31,11.35c0,6.69,4,11.78,12.07,15.22l4.29,1.87,4.29,1.87A32.45,32.45,0,0,1,1331,645a9.19,9.19,0,0,1-.54,13.75c-2.23,1.75-5.27,2.63-9.1,2.63a22.3,22.3,0,0,1-13.7-4.86c-1.83-1.68-3.53-1.62-5.1.16a3,3,0,0,0,.24,4.61,27.87,27.87,0,0,0,18.48,6.65q9.06,0,14.73-5a15,15,0,0,0,5.44-11.91,14.58,14.58,0,0,0-3.57-10.12Q1335.08,637.82,1329.17,635.21Z" transform="translate(-328.3 -86.47)" fill="#231815"/><path d="M1473.45,607.51q-3.65,0-3.64,3.57v31.51q0,18.81-14.18,18.8-13.77,0-13.77-18.8V611.24c0-2.48-1.25-3.73-3.73-3.73s-3.81,1.25-3.81,3.73v31.12q0,13.51,6.16,19.92,5.34,5.69,15.15,5.67,21.39,0,21.38-25.59V611.08C1477,608.7,1475.83,607.51,1473.45,607.51Z" transform="translate(-328.3 -86.47)" fill="#231815"/><path d="M1393.73,450l1-1h0a12.9,12.9,0,0,1,18.22,0l1,1c1.26,1.25,2.53,1.24,3.85-.07a2.33,2.33,0,0,0,0-3.74l-1-1a18.31,18.31,0,0,0-25.86,0l-1,1c-1.26,1.26-1.24,2.53.07,3.85A2.35,2.35,0,0,0,1393.73,450Z" transform="translate(-328.3 -86.47)" fill="#231815"/><path d="M1504.87,486.81h-11.74c-2.05,0-3.08,1-3.08,3.07s1,3.16,3.08,3.16H1498a4.34,4.34,0,0,1,4.62,4.62V508.6q-3.73,3.48-10.77,3.48-9.4,0-14.68-6.56-5.09-6.48-5.09-17.83,0-11.08,5.34-17.58a17.65,17.65,0,0,1,14.34-6.48,16.55,16.55,0,0,1,10.53,3.49c1.63,1.45,3.14,1.32,4.54-.41,1.24-1.45,1.27-2.78.08-4a22.36,22.36,0,0,0-15.31-5.67q-12,0-19.52,8.26-7.69,8.44-7.7,22.65t7.54,22.55q7.29,8.13,19.19,8.12,10.22,0,16.86-5.44a5.28,5.28,0,0,0,1.54-3.88V491.42a4.32,4.32,0,0,0-4.63-4.61Z" transform="translate(-328.3 -86.47)" fill="#231815"/><path d="M1341.91,458.2h-37.19q-3.17,0-3.16,3.17t3.16,3.15h37.19q3.15,0,3.15-3.15T1341.91,458.2Z" transform="translate(-328.3 -86.47)" fill="#231815"/><path d="M1323.35,469.31c-2.53,0-3.8,1.23-3.8,3.73v41.88c0,2.48,1.27,3.73,3.8,3.73s3.73-1.25,3.73-3.73V473C1327.08,470.54,1325.84,469.31,1323.35,469.31Z" transform="translate(-328.3 -86.47)" fill="#231815"/><path d="M1386,518.65q3.64,0,3.65-3.57V483.56q0-18.8,14.18-18.79,13.76,0,13.77,18.79v31.36c0,2.48,1.24,3.73,3.73,3.73s3.81-1.25,3.81-3.73V483.81q0-13.53-6.17-19.93c-3.55-3.78-8.61-5.68-15.14-5.68q-21.39,0-21.39,25.61v31.27Q1382.48,518.65,1386,518.65Z" transform="translate(-328.3 -86.47)" fill="#231815"/><path d="M1025.65,589.25c2.42,0,3.64-1.25,3.64-3.76s-1.22-3.6-3.64-3.6H953.8c-8.68,0-15.35-8.54-15.35-17.21v-5.13H999.8a7.23,7.23,0,0,0,5.31-1.91,7,7,0,0,0,1.94-5.24v-8.31c0-12.92-9.86-24.58-22.94-24.58H938.83a60.74,60.74,0,0,0,4-5.74h0c1-1.82.9-3.39-.6-4.75-2-1.86-3.64-1.68-5.08.36a108.84,108.84,0,0,1-11.41,13.31c-.91.9-4.72,4-6,5a121.52,121.52,0,0,1-21.2,12.81q-5.76,2.44-1.86,6c1.66,1.56,3.61,1.74,5.84.52a121.46,121.46,0,0,0,22.46-13.94c1-.74,3.55-2.88,5.91-5.06v36.63c0,12.92,9.86,24.57,22.95,24.57Z" transform="translate(-328.3 -86.47)" fill="#231815"/><path d="M898.71,502.36h140.93q3.64,0,3.65-3.77,0-3.58-3.65-3.59H999.07V469.5h30.63q3.65,0,3.65-3.76,0-3.6-3.65-3.6H999.07V445.3q0-3.75-3.82-3.75c-2.64,0-4,1.25-4,3.75v16.84H946.07V445.3c0-2.5-1.26-3.75-3.81-3.75s-3.8,1.25-3.8,3.75v16.84H909q-3.65,0-3.64,3.6,0,3.76,3.64,3.76h29.48V495H898.71q-3.65,0-3.64,3.59Q895.07,502.36,898.71,502.36Zm47.36-32.86h45.21V495H946.07Z" transform="translate(-328.3 -86.47)" fill="#231815"/><path d="M1042.52,540.51a121.43,121.43,0,0,1-21.19-12.81c-1.32-1-5.13-4.12-6.05-5a109.63,109.63,0,0,1-11.4-13.31c-1.44-2-3-2.22-5.08-.36-1.5,1.36-1.63,2.93-.6,4.75h0c3.53,5.57,5.08,7.16,9.44,11.79a93.93,93.93,0,0,0,8.46,7.55,121.37,121.37,0,0,0,22.45,13.94c2.24,1.22,4.18,1,5.85-.52Q1048.28,543,1042.52,540.51Z" transform="translate(-328.3 -86.47)" fill="#231815"/><path d="M964.21,767.49H950.14v0c-9.82,0-17.56-7.15-17.56-17v-28c0-2.54-1.32-3.79-4-3.79s-3.76,1.25-3.76,3.79v28c0,14.81,10.66,26,25.27,26h14.07q4.45,0,4.45-4.5C968.66,769,967.18,767.49,964.21,767.49Z" transform="translate(-328.3 -86.47)" fill="#231815"/><path d="M1036.49,769.19Q1009.33,762.5,991,746.8a272.18,272.18,0,0,0,37.09-21.74c2.32-1.75,2.25-3.79-.4-5.42a4.4,4.4,0,0,0-2.24-.85H967.69v.09a3.63,3.63,0,0,0-3.07,1c-1.58,1.25-1.83,2.82-.92,4.68v0q21.19,39.32,70.16,51.77c2.42.76,4.3.22,5.62-1.64Q1042.62,770.5,1036.49,769.19Z" transform="translate(-328.3 -86.47)" fill="#231815"/><path d="M1040.3,711.17q0-3.58-3.64-3.59h-138q-3.65,0-3.64,3.59c0,2.5,1.21,3.77,3.64,3.77h138C1039.09,714.94,1040.3,713.67,1040.3,711.17Z" transform="translate(-328.3 -86.47)" fill="#231815"/><path d="M928.85,703.73c2.65,0,4-1.3,4-3.92v-9.56h83.3c2.32,0,3.47-1.15,3.47-3.43s-1.15-3.43-3.47-3.43h-83.3V666.55h83.3c2.32,0,3.47-1.14,3.47-3.44s-1.15-3.42-3.47-3.42h-83.3V642.85h88.76q3.48,0,3.48-3.6c0-2.28-1.16-3.43-3.48-3.43H931.5a6.77,6.77,0,0,0-5,1.8,6.54,6.54,0,0,0-1.82,4.89v57.3C924.71,702.43,926.09,703.73,928.85,703.73Z" transform="translate(-328.3 -86.47)" fill="#231815"/><path d="M1085.8,506.77h138.27c2.43,0,3.64-1.21,3.64-3.6s-1.21-3.6-3.64-3.6h-65.58v-18h50.84c2.32,0,3.48-1.14,3.48-3.44s-1.16-3.44-3.48-3.44h-50.84V457.24h56c2.33,0,3.48-1.2,3.48-3.59s-1.15-3.44-3.48-3.44H1094.07q-3.46,0-3.47,3.44t3.47,3.59h56.64v17.48H1100c-2.32,0-3.47,1.14-3.47,3.44s1.15,3.44,3.47,3.44h50.68v18H1085.8q-3.65,0-3.65,3.6C1082.15,505.56,1083.37,506.77,1085.8,506.77Z" transform="translate(-328.3 -86.47)" fill="#231815"/><path d="M1224.07,531.53h-35.94V515.26q0-3.92-4-3.92-4.14,0-4.14,3.92v16.27h-51.83V530.1c0-10.7-9.78-18.76-22.74-18.76h-16.24a7.09,7.09,0,0,0-5.17,1.86,6.84,6.84,0,0,0-1.89,5.09V535h0v51h0a3,3,0,0,0,.64,1.33,4.15,4.15,0,0,0,3.49,1.31,10.27,10.27,0,0,0,4-.82c12.91-5.78,22.61-13,28.8-21.4,5.08-6.87,8.11-18,9.11-27.53H1180v58.85c0,2.63,1.38,3.93,4.14,3.93s4-1.3,4-3.93V538.89h35.94c2.43,0,3.64-1.27,3.64-3.77S1226.5,531.53,1224.07,531.53Z" transform="translate(-328.3 -86.47)" fill="#231815"/><path d="M1087.11,645.63h60.62v10.63h-52.5q-3.15,0-3.15,3.1c0,2.08,1.05,3.11,3.15,3.11h109.46c2.1,0,3.15-1,3.15-3.11s-1-3.1-3.15-3.1h-49V645.63h61.6c2.1,0,3.15-1,3.15-3.12s-1-3.1-3.15-3.1h-61.6v-6.86q0-3.91-4-3.92t-4,3.92v6.86h-60.62c-2.09,0-3.14,1.05-3.14,3.1S1085,645.63,1087.11,645.63Z" transform="translate(-328.3 -86.47)" fill="#231815"/><path d="M1094.9,702.84c-1.88,0-2.82.92-2.82,2.77s.94,2.95,2.82,2.95H1205c1.88,0,2.82-1,2.82-2.95s-.94-2.77-2.82-2.77h-49.51V692.53h49.35c2,0,3-1,3-2.93s-1-3-3-3H1095.07c-2,0-3,1-3,3s1,2.93,3,2.93h52.66v10.31Z" transform="translate(-328.3 -86.47)" fill="#231815"/><path d="M1204.57,671.78H1083.81c-2.1,0-3.15,1-3.15,3.1s1,3.28,3.15,3.28h120.76c8.13,0,14,6.4,14,14.53h0v2.06c0,2.45,1.25,3.69,3.73,3.69s3.73-1.24,3.73-3.69v-2.06C1226.06,680.59,1216.82,671.78,1204.57,671.78Z" transform="translate(-328.3 -86.47)" fill="#231815"/><path d="M1222.75,717.05H1081q-3.32,0-3.31,3.28c0,2.28,1.1,3.43,3.31,3.43h141.76c2.2,0,3.31-1.15,3.31-3.43S1225,717.05,1222.75,717.05Z" transform="translate(-328.3 -86.47)" fill="#231815"/><path d="M1171.74,764.3c1.1,1.84,2.76,2,5,.49,1.87-1.42,2.25-2.91,1.16-4.43a84,84,0,0,0-11.93-12.58,3.24,3.24,0,0,0-4.47-.32c-2.21,1.52-2.37,3.16-.5,4.9q2,2,6,6.22C1168.81,760.64,1170.42,762.55,1171.74,764.3Z" transform="translate(-328.3 -86.47)" fill="#231815"/><path d="M1222.9,735.53h-15.06v-4.1c0-2.55-1.29-3.84-3.9-3.84s-3.88,1.29-3.88,3.84v4.1h-46q-3.15,0-3.15,3.11c0,2.18,1.05,3.26,3.15,3.26h46v10c0,8.68-6.67,17.23-15.34,17.23l-30.21,0c-2.42,0-3.64,1.2-3.64,3.59s1.22,3.77,3.64,3.77h30.38c13.09,0,22.95-11.66,22.95-24.58v-10h15.06c2.11,0,3.16-1.08,3.16-3.26S1225,735.53,1222.9,735.53Z" transform="translate(-328.3 -86.47)" fill="#231815"/><path d="M1115.18,732.79h-15.91a7.07,7.07,0,0,0-5.16,1.85,6.87,6.87,0,0,0-1.89,5.1v19.81a6.83,6.83,0,0,0,1.89,5.09,7,7,0,0,0,5.16,1.88h31.61a7.1,7.1,0,0,0,5.16-1.87,6.87,6.87,0,0,0,1.89-5.1v-8C1137.93,740.85,1128.15,732.79,1115.18,732.79Z" transform="translate(-328.3 -86.47)" fill="#231815"/></svg>