<svg id="圖層_1" data-name="圖層 1" xmlns="http://www.w3.org/2000/svg" viewBox="0 0 1812.82 571.66"><path d="M446.43,460.57c-.29-16.45-.88-21.59-5.67-21-18.63,2.15-61.34,2.62-79.87,3.46-2.79.12-2.51,1.27-2.62,7.87-.47,31.39-13.45,67.93-42.07,84.48-22.07,12.78-47.58,15.82-72.76,16.2-7.22.1-14.45-.1-21.65-.53q-11.39-.71-22.73-2.14a75.13,75.13,0,0,1-22.3-5.9c-14.33-6.64-24.72-19.66-32.36-33s-14.51-27-14.17-42.86c.26-11.48,1.52-13.63-2.83-14.22s-19.87.56-24.9,0c-19.43-2.34-34.95-5.58-52.6-2.63-5,.84-5,3.53-5.3,7.83-.44,7.88,2.5,170.52,1.73,221.51-.16,9.89,3.47,18.58,5.74,27.61,2.5,9.88,7.75,9.26,26.22,9.64,12.42.26,25.32.75,37.73.39,19-.56,44.28,1.21,63.29.12,14-.79,87.94.13,122.31-3.15,11.82-1.13,104.05-4.7,123.29-4.91A44.37,44.37,0,0,0,436.43,708c8.51-2.34,13.43.5,13.91-8.19.65-12,1.64-32.64,1.58-44.62C451.65,593.49,447.53,522.29,446.43,460.57Z" transform="translate(-44.05 -146.05)" fill="#ffe55f"/><path d="M52.5,443c1.81-.08,10.26-1.36,12.08-1.39,25.55-.33,44.36,1.17,69.83,3,24.3,1.75,45.89-2.45,65-1.34,9,.54,67.53-8.25,72.89-8.78,30.48-3,62.91-13.85,93.35-17.2,18.84-2,49-1.69,69.3-5.75,1.42-.28,7.66.14,1.1-5-40.8-31.78-95.14-66.52-136.82-97.62-16.54-12.39-30.87-17.54-42.23-31.67-1.45-1.78-3.26-7.13-3.4-9.74-.37-6.87-.8-9.76-1.43-16.61-2.77-30.73-1.78-60.42-4-91.19-.35-5.07-1-12.48-6.65-13.52s-5.77,3.73-7.8,8.74c-1.44,3.58-.26,9.06-.5,12.9-2,32.56-1.52,64-5.55,96.46-.53,4.27-7.33,6.47-8.38,7.42-21.8,19.56-44.74,34.5-64.87,54.33-17.64,17.39-39.67,33.74-57.95,50.5-16.74,15.34-34.85,28.77-45.13,49.57-1.44,2.94-8.23,14.16-7.17,16.22C45.47,444.9,49.56,443.1,52.5,443Z" transform="translate(-44.05 -146.05)" fill="#ffe55f"/><path d="M332,444c-17.55.11-28.11,3.51-45.66,3.51-8-1.4-23.36-.8-31.29,1.42-14.88,4.09-29.59,2.35-45.08,2.9-17.29.66-50.92.73-68.16,2.19-6.38.52-3.9,10-.66,24.15,3,13.13,8.67,26.72,19.61,35.72,24.54,20.17,52.93,24.19,84,22.74,19.72-.9,41.54-3,58.36-14.12,14.71-9.71,24.59-25.86,29.41-42.41,3-10.3,5.61-21.21,4.23-32C336.3,444.66,335.13,444,332,444Z" transform="translate(-44.05 -146.05)" fill="#ffe55f"/><path d="M1601.34,295.56h111.47v19.55h-96.55c-3.85,0-5.78,1.89-5.78,5.74s1.93,5.7,5.78,5.7h201.32c3.85,0,5.78-1.93,5.78-5.7s-1.93-5.74-5.78-5.74h-90.15V295.56h113.3c3.85,0,5.78-1.89,5.78-5.7s-1.93-5.72-5.78-5.72h-113.3V271.52q0-7.2-7.31-7.21t-7.31,7.21v12.62H1601.34c-3.86,0-5.78,1.91-5.78,5.72S1597.48,295.56,1601.34,295.56Z" transform="translate(-44.05 -146.05)" fill="#231815"/><path d="M1615.65,400.79q-5.18,0-5.17,5.08,0,5.43,5.17,5.43h202.53q5.17,0,5.18-5.43,0-5.08-5.18-5.08h-91.06V381.87h90.76c3.66,0,5.48-1.84,5.48-5.43s-1.82-5.41-5.48-5.41H1616c-3.64,0-5.48,1.81-5.48,5.41s1.84,5.43,5.48,5.43h96.85v18.92Z" transform="translate(-44.05 -146.05)" fill="#231815"/><path d="M1817.36,343.67H1595.25c-3.86,0-5.79,1.9-5.79,5.72q0,6,5.79,6h222.11c14.92,0,25.79,11.76,25.79,26.7v3.82c0,4.52,2.28,6.77,6.87,6.77s6.84-2.25,6.84-6.77V382.1C1856.86,359.87,1839.88,343.67,1817.36,343.67Z" transform="translate(-44.05 -146.05)" fill="#231815"/><path d="M1381.91,519.7H1356c-18,0-32.29-13.14-32.29-31.18V437.08c0-4.67-2.42-7-7.27-7-4.59,0-6.89,2.32-6.89,7v51.44c0,27.23,19.57,47.74,46.45,47.74h25.89c5.45,0,8.18-2.77,8.18-8.27S1387.36,519.7,1381.91,519.7Z" transform="translate(-44.05 -146.05)" fill="#231815"/><path d="M1850.77,426.92H1590.08q-6.11,0-6.1,6,0,6.33,6.1,6.32h260.69q6.09,0,6.09-6.32Q1856.86,426.93,1850.77,426.92Z" transform="translate(-44.05 -146.05)" fill="#231815"/><path d="M1757,513.79q3.06,5.12,9.14.92c3.46-2.6,4.16-5.32,2.12-8.13a155,155,0,0,0-21.91-23.15c-2.65-2.38-5.38-2.59-8.21-.59-4.07,2.81-4.4,5.82-.93,9q3.66,3.58,11,11.43Q1753.32,509,1757,513.79Z" transform="translate(-44.05 -146.05)" fill="#231815"/><path d="M1851.08,460.9h-27.72v-7.49q0-7.11-7.16-7.1t-7.16,7.1v7.49h-84.65c-3.87,0-5.79,1.9-5.79,5.73,0,4,1.92,6,5.79,6H1809v18.46c0,15.93-12.25,31.67-28.21,31.67l-55.54,0c-4.45,0-6.69,2.22-6.69,6.61,0,4.62,2.24,6.92,6.69,6.92l55.88,0c24.06,0,42.19-21.44,42.19-45.19V472.61h27.72c3.85,0,5.78-2,5.78-6C1856.86,462.8,1854.93,460.9,1851.08,460.9Z" transform="translate(-44.05 -146.05)" fill="#231815"/><path d="M1514.85,522.82q-50-12.33-83.76-41.18a500,500,0,0,0,68.23-40c4.25-3.22,4.12-7-.75-10a7.92,7.92,0,0,0-4.1-1.56v0H1388.29v.17c-1.62-.4-3.5.22-5.63,1.94-2.91,2.29-3.35,5.17-1.7,8.61v0q39,72.31,129,95.19c4.46,1.39,7.93.41,10.36-3Q1526.11,525.24,1514.85,522.82Z" transform="translate(-44.05 -146.05)" fill="#231815"/><path d="M1691.31,514.46c2.3-2.27,3.47-5.43,3.47-9.37V490.37c0-19.68-18-34.51-41.83-34.51h-29.26c-4,0-7.18,1.15-9.49,3.42s-3.47,5.4-3.47,9.36v36.45c0,3.94,1.17,7.1,3.46,9.37s5.51,3.43,9.5,3.43h58.12C1685.81,517.89,1689,516.73,1691.31,514.46Z" transform="translate(-44.05 -146.05)" fill="#231815"/><path d="M1515.15,423c4.46,0,6.71-2.31,6.71-6.92,0-4.41-2.25-6.63-6.71-6.63H1261.44c-4.46,0-6.69,2.22-6.69,6.63q0,6.92,6.69,6.92Z" transform="translate(-44.05 -146.05)" fill="#231815"/><path d="M1316.87,402.43q7.32,0,7.32-7.23V377.64h153.19c4.27,0,6.39-2.11,6.39-6.31s-2.12-6.32-6.39-6.32H1324.19v-31h153.19c4.27,0,6.39-2.11,6.39-6.31s-2.12-6.32-6.39-6.32H1324.19v-31h163.24c4.27,0,6.39-2.19,6.39-6.62,0-4.21-2.12-6.31-6.39-6.31H1321.75q-5.79,0-9.12,3.31a12.11,12.11,0,0,0-3.37,9V395.2Q1309.26,402.43,1316.87,402.43Z" transform="translate(-44.05 -146.05)" fill="#231815"/><path d="M931.93,384.55h254.29c4.48,0,6.7-2.2,6.7-6.61s-2.22-6.61-6.7-6.61h-120.6V338.24h93.5q6.39,0,6.4-6.3t-6.4-6.29h-93.5V293.47h102.93q6.42,0,6.41-6.61,0-6.32-6.41-6.31H947.15q-6.39,0-6.39,6.31,0,6.61,6.39,6.61h104.16v32.18H958.12q-6.4,0-6.41,6.29t6.41,6.3h93.19v33.09H931.93c-4.47,0-6.71,2.19-6.71,6.61S927.46,384.55,931.93,384.55Z" transform="translate(-44.05 -146.05)" fill="#231815"/><path d="M1192.92,436.69c0-4.39-2.22-6.6-6.7-6.6h-66.08v-29.9c0-4.83-2.44-7.23-7.31-7.23-5.07,0-7.61,2.4-7.61,7.23v29.9H1009.9V427.5c0-19.69-18-34.54-41.83-34.54H938.2c-4,0-7.2,1.15-9.51,3.44s-3.47,5.43-3.47,9.37V530.28h.07a5.14,5.14,0,0,0,1.18,2.45c1.22,1.6,3.35,2.39,6.39,2.39a19.39,19.39,0,0,0,7.32-1.49c23.74-10.66,41.58-23.92,53-39.37,9.34-12.62,14.92-33.21,16.75-50.64h95.33V551.88q0,7.22,7.61,7.21,7.31,0,7.31-7.21V443.62h66.08C1190.7,443.62,1192.92,441.3,1192.92,436.69Z" transform="translate(-44.05 -146.05)" fill="#231815"/><path d="M827.9,522.74H695.76c-16,0-28.21-15.74-28.21-31.67v-9.43H780.37q6.17,0,9.76-3.52c2.38-2.38,3.58-5.58,3.58-9.64V453.2c0-23.77-18.13-45.22-42.19-45.22H668.25a109.88,109.88,0,0,0,7.35-10.53v-.05c1.89-3.34,1.65-6.23-1.1-8.72-3.73-3.44-6.7-3.08-9.34.66a197.48,197.48,0,0,1-21,24.47c-1.68,1.68-8.68,7.42-11.12,9.24a220.81,220.81,0,0,1-39,23.54c-7.06,3-8.2,6.71-3.42,11.08,3,2.9,6.63,3.21,10.74,1A225,225,0,0,0,642.7,433c1.76-1.35,6.54-5.3,10.87-9.29v67.36c0,23.75,18.13,45.19,42.19,45.19H827.9q6.71,0,6.7-6.92C834.6,524.93,832.37,522.74,827.9,522.74Z" transform="translate(-44.05 -146.05)" fill="#231815"/><path d="M594.46,376.44H853.64c4.47,0,6.7-2.29,6.7-6.93,0-4.39-2.23-6.6-6.7-6.6H779V316h56.33c4.47,0,6.71-2.29,6.71-6.9,0-4.41-2.24-6.64-6.71-6.64H779v-31c0-4.61-2.34-6.9-7-6.9-4.88,0-7.32,2.29-7.32,6.9v31H681.56v-31c0-4.61-2.33-6.9-7-6.9s-7,2.29-7,6.9v31H613.34c-4.46,0-6.69,2.23-6.69,6.64,0,4.61,2.23,6.9,6.69,6.9h54.21v46.9H594.46c-4.46,0-6.7,2.21-6.7,6.6C587.76,374.15,590,376.44,594.46,376.44ZM681.56,316h83.15v46.9H681.56Z" transform="translate(-44.05 -146.05)" fill="#231815"/><path d="M859,446.59a220.53,220.53,0,0,1-39-23.54c-2.43-1.82-9.44-7.56-11.12-9.24a198.34,198.34,0,0,1-21-24.47c-2.64-3.74-5.6-4.1-9.33-.66-2.75,2.49-3,5.38-1.1,8.72v.05c6.46,10.22,9.33,13.15,17.35,21.67A171.85,171.85,0,0,0,810.32,433a225.3,225.3,0,0,0,41.3,25.65c4.12,2.23,7.7,1.92,10.74-1C867.14,453.3,866,449.59,859,446.59Z" transform="translate(-44.05 -146.05)" fill="#231815"/><path d="M1193.9,628.17q-5.75,0-5.75,5.63v78.29c0,3.76,1.92,5.62,5.75,5.62s5.6-1.86,5.6-5.62V633.8Q1199.5,628.17,1193.9,628.17Z" transform="translate(-44.05 -146.05)" fill="#231815"/><path d="M786.09,614.26l1.45-1.48a19.46,19.46,0,0,1,27.48,0l1.47,1.48c1.88,1.88,3.81,1.85,5.79-.13s1.86-3.75,0-5.63L820.78,607a27.61,27.61,0,0,0-39,0l-1.47,1.48c-1.89,1.88-1.86,3.8.11,5.77S784.2,616.14,786.09,614.26Z" transform="translate(-44.05 -146.05)" fill="#231815"/><path d="M947.23,669.72H929.52c-3.1,0-4.64,1.54-4.64,4.64s1.54,4.76,4.64,4.76h7.32a6.53,6.53,0,0,1,7,7v16.5q-5.62,5.22-16.23,5.23c-9.48,0-16.83-3.29-22.12-9.9s-7.69-15.46-7.69-26.84c0-11.18,2.68-20,8.05-26.53s12.59-9.77,21.62-9.77a24.94,24.94,0,0,1,15.88,5.27q3.66,3.26,6.85-.62c1.86-2.2,1.91-4.2.11-6a33.6,33.6,0,0,0-23.08-8.55q-18.08,0-29.43,12.46-11.61,12.71-11.61,34.12t11.37,34q11,12.22,28.94,12.21,15.38,0,25.4-8.18a8,8,0,0,0,2.32-5.86v-27a6.52,6.52,0,0,0-7-7Z" transform="translate(-44.05 -146.05)" fill="#231815"/><path d="M1026.19,667.08h-22.71c-2.85,0-4.29,1.44-4.29,4.29s1.44,4.28,4.29,4.28h22.71c2.85,0,4.27-1.44,4.27-4.28S1029,667.08,1026.19,667.08Z" transform="translate(-44.05 -146.05)" fill="#231815"/><path d="M1278.76,607.12c-2.86,0-4.29,1.44-4.29,4.28s1.43,4.27,4.29,4.27h22.71c2.85,0,4.28-1.41,4.28-4.27s-1.43-4.28-4.28-4.28Z" transform="translate(-44.05 -146.05)" fill="#231815"/><path d="M1113.09,668.38l-12.82-5.5a47.44,47.44,0,0,1-10-5.26,12,12,0,0,1-4.75-9.65,11.61,11.61,0,0,1,4.57-9.59c3-2.38,7.1-3.6,12.14-3.6a28.12,28.12,0,0,1,16.62,5.39c2.52,2,4.85,1.78,7-.74q2.79-3.4-.26-6.23a36.28,36.28,0,0,0-23.33-8.31q-12.2,0-20.2,6.72a21.3,21.3,0,0,0-8,17.1q0,15.12,18.2,23l6.46,2.8,6.47,2.82q8,3.56,10.63,5.86a12.74,12.74,0,0,1,4.29,10,12.89,12.89,0,0,1-5.08,10.7q-5.07,4-13.73,4-11,0-20.64-7.32c-2.77-2.52-5.35-2.44-7.7.23-2,2.45-1.92,4.77.36,7a42.07,42.07,0,0,0,27.86,10q13.66,0,22.22-7.46a22.69,22.69,0,0,0,8.18-17.94q0-9.27-5.37-15.27Q1122,672.3,1113.09,668.38Z" transform="translate(-44.05 -146.05)" fill="#231815"/><path d="M1316.92,626.59c-3.66,0-5.5,1.8-5.5,5.4v47.49q0,28.35-21.36,28.34-20.76,0-20.76-28.34V632.21c0-3.72-1.89-5.62-5.62-5.62s-5.76,1.9-5.76,5.62v46.91q0,20.39,9.29,30,8.07,8.57,22.85,8.54,32.22,0,32.24-38.59V632Q1322.3,626.59,1316.92,626.59Z" transform="translate(-44.05 -146.05)" fill="#231815"/><path d="M714.38,626.59H658.32c-3.17,0-4.76,1.58-4.76,4.77s1.59,4.77,4.76,4.77h56.06c3.19,0,4.76-1.58,4.76-4.77S717.57,626.59,714.38,626.59Z" transform="translate(-44.05 -146.05)" fill="#231815"/><path d="M686.43,643.33c-3.84,0-5.76,1.86-5.76,5.62v63.14c0,3.76,1.92,5.62,5.76,5.62s5.6-1.86,5.6-5.62V649C692,645.19,690.17,643.33,686.43,643.33Z" transform="translate(-44.05 -146.05)" fill="#231815"/><path d="M801.37,626.59q-32.25,0-32.24,38.61v47.15c0,3.58,1.79,5.36,5.37,5.36s5.5-1.78,5.5-5.36V664.84q0-28.37,21.37-28.34,20.75,0,20.76,28.34v47.25c0,3.76,1.88,5.62,5.62,5.62s5.74-1.86,5.74-5.62V665.2q0-20.4-9.29-30.05Q816.15,626.62,801.37,626.59Z" transform="translate(-44.05 -146.05)" fill="#231815"/><path d="M1596.62,708.06H1569.4a6.67,6.67,0,0,1-7.08-7.1V633.8q0-5.62-5.63-5.63T1551,633.8v76.83a6.74,6.74,0,0,0,7.07,7.08h38.59c3.19,0,4.77-1.63,4.77-4.88S1599.81,708.06,1596.62,708.06Z" transform="translate(-44.05 -146.05)" fill="#231815"/><path d="M1465.31,628.17h-18.44a6.76,6.76,0,0,0-7.08,7.1v76.82c0,3.76,1.9,5.62,5.74,5.62s5.61-1.86,5.61-5.62V644.42a6.67,6.67,0,0,1,7.09-7.07H1464q12.22,0,17.71,3.67,6,4,6,13.42c0,6.36-1.89,11.06-5.68,14s-9.63,4.51-17.53,4.51h-4.28c-3,0-4.51,1.56-4.51,4.65s1.5,4.5,4.51,4.5h4.28v0h1.46q15.27,0,23.82-6.73,9.16-7.19,9.16-21C1498.89,637,1487.69,628.17,1465.31,628.17Z" transform="translate(-44.05 -146.05)" fill="#231815"/><path d="M1684.47,633.52a8,8,0,0,0-2.87-3.92,7.58,7.58,0,0,0-4.59-1.45h-1.33a7.51,7.51,0,0,0-4.58,1.45,7.91,7.91,0,0,0-2.87,3.92l-26.38,77.55c-1.48,4.4.12,6.6,4.75,6.6a5.56,5.56,0,0,0,5.88-4.38l7.31-23h22c3,0,4.47-1.49,4.47-4.54s-1.48-4.46-4.47-4.46H1662.6s8.52-27,10.19-32.77a3.36,3.36,0,0,1,1.19-1.6,3.21,3.21,0,0,1,2-.65h.57a3.35,3.35,0,0,1,3.09,2.11c2.21,7.6,20,64.62,20,64.62a6,6,0,0,0,6.22,4.67c4.88,0,6.51-2.27,4.88-6.85Z" transform="translate(-44.05 -146.05)" fill="#231815"/><path d="M1791.24,626.59q-32.23,0-32.24,38.61v47.15c0,3.58,1.79,5.36,5.37,5.36s5.51-1.78,5.51-5.36V664.84q0-28.37,21.36-28.34,20.76,0,20.77,28.34v47.25c0,3.76,1.87,5.62,5.61,5.62s5.74-1.86,5.74-5.62V665.2q0-20.4-9.28-30.05Q1806,626.62,1791.24,626.59Z" transform="translate(-44.05 -146.05)" fill="#231815"/></svg>